<svg width="193" height="24" viewBox="0 0 193 24" fill="none" xmlns="http://www.w3.org/2000/svg">
<path d="M18.86 0.480259C18.7 3.38026 18.62 7.01692 18.62 11.3903C18.62 15.7636 18.7 19.7636 18.86 23.3903H14.52C14.52 22.9103 12.91 20.3736 9.69 15.7803C6.31 10.9203 4.38667 7.60026 3.92 5.82026H3.64C3.91712 8.14356 4.06402 10.4805 4.08 12.8203C4.08 15.7203 4.16 19.2403 4.32 23.4003H0C0.18 19.7736 0.266667 15.7736 0.26 11.4003C0.26 7.16026 0.18 3.48026 0 0.480259H5.22C5.22 1.10026 6.66667 3.57693 9.56 7.91026C12.64 12.5169 14.41 15.6403 14.87 17.2803H15.13C14.8673 14.9559 14.7271 12.6193 14.71 10.2803C14.71 7.10026 14.63 3.85026 14.47 0.510259L18.86 0.480259ZM39.76 11.9703C39.9889 13.3825 40.1126 14.8097 40.13 16.2403C40.1283 17.5247 40.2152 18.8078 40.39 20.0803C39.6233 20.2103 38.8476 20.2805 38.07 20.2903C36.9989 20.3398 35.931 20.1397 34.9505 19.7058C33.97 19.272 33.1037 18.6162 32.42 17.7903C31.0577 16.1489 30.3302 14.0729 30.37 11.9403C30.3105 9.9268 30.9579 7.95608 32.2 6.37026C32.8821 5.58839 33.737 4.97618 34.6969 4.58216C35.6568 4.18814 36.6953 4.02315 37.73 4.10026C39.4205 4.12623 41.1008 4.36819 42.73 4.82026L43.27 0.670259C41.6285 0.308327 39.9507 0.137193 38.27 0.160259C34.27 0.160259 31.1267 1.38359 28.84 3.83026C26.6208 6.15913 25.4006 9.26361 25.44 12.4803C25.3857 15.4538 26.5069 18.3286 28.56 20.4803C30.64 22.6936 33.6933 23.8003 37.72 23.8003C40.0879 23.727 42.4383 23.3678 44.72 22.7303C44.63 20.4903 44.58 18.7303 44.58 17.3803C44.58 15.5503 44.58 13.7403 44.72 11.9303L39.76 11.9703ZM67.94 11.9703C70.4067 18.9436 71.6433 22.7469 71.65 23.3803H66C65.6634 21.147 65.1279 18.9482 64.4 16.8103H56.31C55.5417 18.9403 54.9856 21.1409 54.65 23.3803H49.36C49.36 22.9269 50.73 19.1769 53.47 12.1303C56.21 5.08359 57.5767 1.20026 57.57 0.480259H64.22C64.22 1.14026 65.46 4.96359 67.94 11.9503V11.9703ZM63.53 13.4503C61.53 7.45026 60.53 4.14026 60.53 3.64026H60.24C59.3714 6.96118 58.3334 10.2355 57.13 13.4503H63.53ZM82.24 13.7903C82.24 16.4603 81.75 18.2703 80.75 19.2303C79.808 19.9832 78.6108 20.3417 77.41 20.2303C76.5949 20.2211 75.7908 20.0405 75.05 19.7003L74.74 23.4803C75.7455 23.7221 76.7758 23.8463 77.81 23.8503C80.69 23.8503 82.81 23.1403 84.16 21.7403C85.7667 20.1003 86.57 17.3269 86.57 13.4203C86.57 8.28693 86.64 3.97693 86.78 0.490259H82C82.1667 3.98359 82.2467 8.41026 82.24 13.7703V13.7903ZM94.16 0.480259C94.3133 3.48026 94.3867 7.11692 94.38 11.3903C94.3733 15.6636 94.3 19.6636 94.16 23.3903H99.16C99.0133 19.8303 98.9367 15.8303 98.93 11.3903C98.9233 6.95026 98.99 3.31359 99.13 0.480259H94.16ZM122.16 11.3903C122.16 6.77692 122.23 3.14026 122.37 0.480259H117.4C117.54 3.35359 117.61 6.99026 117.61 11.3903C117.61 16.2036 117.54 20.2036 117.4 23.3903H132L132.14 19.5603C128.54 19.7403 125.14 19.8203 121.89 19.8203C122.05 17.7269 122.13 14.9169 122.13 11.3903H122.16ZM153.83 11.9503C156.31 18.9236 157.55 22.7269 157.55 23.3603H151.9C151.563 21.127 151.028 18.9282 150.3 16.7903H142.18C141.406 18.9187 140.85 21.1199 140.52 23.3603H135.23C135.23 22.9069 136.6 19.1569 139.34 12.1103C142.08 5.06359 143.447 1.18693 143.44 0.480259H150.09C150.09 1.14026 151.327 4.96359 153.8 11.9503H153.83ZM149.43 13.4303C147.43 7.43026 146.43 4.12026 146.43 3.62026H146.15C145.268 6.94192 144.217 10.2162 143 13.4303H149.43ZM176.11 11.9703C176.339 13.3825 176.463 14.8097 176.48 16.2403C176.478 17.5247 176.565 18.8078 176.74 20.0803C175.973 20.2103 175.198 20.2805 174.42 20.2903C173.349 20.3398 172.281 20.1397 171.301 19.7058C170.32 19.272 169.454 18.6162 168.77 17.7903C167.408 16.1489 166.68 14.0729 166.72 11.9403C166.66 9.9268 167.308 7.95608 168.55 6.37026C169.232 5.58839 170.087 4.97618 171.047 4.58216C172.007 4.18814 173.045 4.02315 174.08 4.10026C175.771 4.12623 177.451 4.36819 179.08 4.82026L179.66 0.670259C178.019 0.308327 176.341 0.137193 174.66 0.160259C170.66 0.160259 167.517 1.38359 165.23 3.83026C163.011 6.15913 161.791 9.26361 161.83 12.4803C161.776 15.4538 162.897 18.3286 164.95 20.4803C167.03 22.6936 170.083 23.8003 174.11 23.8003C176.478 23.727 178.828 23.3678 181.11 22.7303C181.02 20.4903 180.97 18.7303 180.97 17.3803C180.97 15.5503 181.02 13.7403 181.11 11.9303L176.11 11.9703ZM193 0.480259H188C188.16 3.48026 188.23 7.12026 188.23 11.3903C188.23 15.6603 188.16 19.7303 188 23.3903H193C192.847 19.8303 192.77 15.8303 192.77 11.3903C192.77 6.95026 192.847 3.31359 193 0.480259Z" fill="#44481E"/>
</svg>
